<?xml version="1.0" encoding="utf-8"?>
<svg xmlns="http://www.w3.org/2000/svg" version="1.1" viewbox="0,0,1209.35,400" width="1209.35" height="400">
<style>/* <![CDATA[ */

/* GRID */
.theme-light .block-language-gantt .grid {
    color: #444;
}

.theme-dark .block-language-gantt .grid {
    color: #ccc;
}

/* GROUP BLOCK */
.block-language-gantt .group-block rect {
    opacity: 25%;
}

.block-language-gantt .group-block rect.even {
    fill: #999;
}

.block-language-gantt .group-block rect.odd {
    fill: #777;
}

.block-language-gantt .group-block-label text {
    fill: white;
    font-size: 1em;
}

.theme-light .block-language-gantt .group-block-label text {
    fill: black;
}

/* TASKS */
.block-language-gantt .tasks-labels text {
    fill: white;
    text-anchor: middle;
    font-size: 0.8em;
}

.block-language-gantt .tasks-labels tspan {
    text-anchor: middle;
}

.block-language-gantt .tasks rect {
    fill: rgb(30, 41, 41);
}

.block-language-gantt .tasks rect[onclick^=document],
.block-language-gantt .tasks-labels text[onclick^=document] {
    cursor: pointer;
}

/* MILESTONES */
.block-language-gantt .milestones-labels text {
    fill: white;
    text-anchor: middle;
    font-size: 0.7em;
}

.block-language-gantt .milestones rect {
    fill: darkcyan;
    stroke: #aaa;
    stroke-width: 1px;
}

.block-language-gantt .milestones rect[onclick^=document],
.block-language-gantt .milestones-labels text[onclick^=document] {
    cursor: pointer;
}

/* TODAY MARKER */
.block-language-gantt .today-marker line {
    stroke: brown;
    stroke-width: 2px;
}

/* DEPENDENCIES */
.block-language-gantt .dependencies path {
    stroke-width: 2px;
    stroke: #c7254e;
    fill: none;
}

.block-language-gantt .dependencies path.arrow-head {
    stroke: none;
    fill: #c7254e;
}

/* TITLE */
.block-language-gantt text.title{
    fill: #ddd;
    text-anchor: middle;
    font-size: 1.5em;
    font-weight: bold;
}

.theme-light .block-language-gantt text.title{
    fill: #333;
}

/* CUSTOM CLASSES */
.block-language-gantt .tasks rect.in-progress, 
.block-language-gantt .milestones rect.in-progress, 
.block-language-gantt .dependencies path.arrow-head.in-progress {
    fill: #ff9200;
}

.grad-start-in-progress {
    stop-color:#ff9200;
}

.grad-end-in-progress {
    stop-color:#ffd59e;
}

.block-language-gantt .dependencies path.in-progress {
    stroke: #ff9200;
}

.block-language-gantt .tasks rect.done, 
.block-language-gantt .milestones rect.done,
.block-language-gantt .dependencies path.arrow-head.done {
    fill: #2da023;
}

.grad-start-done {
    stop-color:#2da023;
}

.grad-end-done {
    stop-color:#6c9768;
}

.block-language-gantt .dependencies path.done {
    stroke: #2da023;
}

.block-language-gantt .tasks rect.pending, 
.block-language-gantt .milestones rect.pending,
.block-language-gantt .dependencies path.arrow-head.pending {
    fill: #2378a0;
}

.grad-start-pending {
    stop-color:#2378a0;
}

.grad-end-pending {
    stop-color:#5d8597;
}

.block-language-gantt .dependencies path.pending {
    stroke: #2378a0;
}

.block-language-gantt .tasks rect.critical, 
.block-language-gantt .milestones rect.critical,
.block-language-gantt .dependencies path.arrow-head.critical {
    fill: #a02323;
}

.grad-start-critical {
    stop-color:#a02323;
}

.grad-end-critical {
    stop-color:#996969;
}

.block-language-gantt .dependencies path.critical {
    stroke: #a02323;
}
/* ]]> */</style>
<g class="x grid" transform="translate(0,380)" fill="none" font-size="10" font-family="sans-serif" text-anchor="middle"><path class="domain" stroke="currentColor" d="M120.935,-400V0H1148.8825V-400"></path><g class="tick" opacity="1" transform="translate(120.935,0)"><line stroke="currentColor" y2="-400"></line><text fill="currentColor" y="3" dy="0.71em">01/01/2022</text></g><g class="tick" opacity="1" transform="translate(391.08439597315436,0)"><line stroke="currentColor" y2="-400"></line><text fill="currentColor" y="3" dy="0.71em">02/01/2022</text></g><g class="tick" opacity="1" transform="translate(635.0903020134227,0)"><line stroke="currentColor" y2="-400"></line><text fill="currentColor" y="3" dy="0.71em">03/01/2022</text></g><g class="tick" opacity="1" transform="translate(904.8765939597315,0)"><line stroke="currentColor" y2="-400"></line><text fill="currentColor" y="3" dy="0.71em">04/01/2022</text></g></g><g class="group-block"><rect x="0" y="50" height="200" width="1209.35" class="even"></rect><rect x="0" y="250" height="100" width="1209.35" class="odd"></rect></g><g class="group-block-label"><text x="5" y="55"><tspan x="5" dy="15">This is a Group</tspan></text><text x="5" y="255"><tspan x="5" dy="15">Jason's tasks</tspan></text></g><g class="tasks"><rect class="in-progress" style="" x="120.935" y="55" width="517.179744966443" height="40" rx="10" ry="10" onclick="none;"></rect><rect class="done" style="" x="638.1147449664429" y="105" width="271.3732701342282" height="40" rx="10" ry="10" onclick="none;"></rect><rect class="pending" style="" x="1032.2086325503356" y="155" width="122.72061744966439" height="40" rx="10" ry="10" onclick="none;"></rect><rect class="" style="" x="515.3941275167786" y="255" width="122.72061744966439" height="40" rx="10" ry="10" onclick="none;"></rect></g><g class="tasks-labels"><text class="in-progress" x="379.5248724832215" y="65" onclick="none;"><tspan x="379.5248724832215" dy="15">task 1</tspan></text><text class="done" x="773.801380033557" y="115" onclick="none;"><tspan x="773.801380033557" dy="15">task 2</tspan></text><text class="pending" x="1093.5689412751676" y="165" onclick="none;"><tspan x="1093.5689412751676" dy="15">task 3</tspan></text><text class="" x="576.7544362416106" y="265" onclick="none;"><tspan x="576.7544362416106" dy="15">task 4</tspan></text></g><g class="milestones"><rect class="" x="1154.92925" y="205" width="40" height="40" transform="translate(-25, 0) rotate(45, 1174.92925, 225)" onclick="none;"></rect><rect class="" x="515.3941275167786" y="305" width="40" height="40" transform="translate(-25, 0) rotate(45, 535.3941275167786, 325)" onclick="none;"></rect></g><g class="milestones-labels"><text class="" x="1174.92925" y="215" transform="translate(-25, 0)" onclick="none;"><tspan x="1174.92925" dy="15">Jalon 1</tspan></text><text class="" x="535.3941275167786" y="315" transform="translate(-25, 0)" onclick="none;"><tspan x="535.3941275167786" dy="15">jalon 2</tspan></text></g><g class="dependencies"><path d="M509 95 L509 95 C509 125 509 125 559 125 L638 125" class="in-progress path"></path><path d="M638 125 L628 130 L628 120 Z" class="in-progress arrow-head"></path><path d="M617 255 L617 205 C617 175 617 175 667 175 L1032 175" class=" path"></path><path d="M1032 175 L1022 180 L1022 170 Z" class=" arrow-head"></path><path d="M509 95 L509 145 C509 175 509 175 559 175 L1032 175" class="in-progress path"></path><path d="M1032 175 L1022 180 L1022 170 Z" class="in-progress arrow-head"></path><path d="M847 145 L847 145 C847 175 847 175 897 175 L1032 175" class="done path"></path><path d="M1032 175 L1022 180 L1022 170 Z" class="done arrow-head"></path><path d="M1129 195 L1129 195 C1129 225 1129 225 1122 225 L1122 225" class="pending path"></path><path d="M1122 225 L1112 230 L1112 220 Z" class="pending arrow-head"></path><path d="M417 95 L417 295 C417 325 417 325 467 325 L483 325" class="in-progress path"></path><path d="M483 325 L473 330 L473 320 Z" class="in-progress arrow-head"></path></g><text class="title" x="604.675" y="20">My Gantt Chart!</text></svg>